<svg xmlns="http://www.w3.org/2000/svg" viewBox="0 0 800 500" width="800" height="500">
  <defs>
    <style>
      @import url('https://fonts.googleapis.com/css2?family=Inter:wght@400;500;600;700&amp;display=swap');
      text { font-family: 'Inter', -apple-system, BlinkMacSystemFont, 'Segoe UI', sans-serif; }
    </style>
  </defs>
  <rect width="800" height="500" fill="#ffffff" rx="12"/><text x="400" y="35" text-anchor="middle" font-size="18" font-weight="700" fill="#1e293b">Dependency Scorecard</text><text x="400" y="55" text-anchor="middle" font-size="12" fill="#64748b">8 dependencies rated across System Reliability, Owner Reliability, Community Confidence</text><text x="205" y="78" text-anchor="middle" font-size="13" font-weight="600" fill="#1e293b">System</text><text x="319" y="78" text-anchor="middle" font-size="13" font-weight="600" fill="#1e293b">Owner</text><text x="433" y="78" text-anchor="middle" font-size="13" font-weight="600" fill="#1e293b">Community</text><text x="547" y="78" text-anchor="middle" font-size="13" font-weight="600" fill="#1e293b">Verdict</text><text x="140" y="117" text-anchor="end" font-size="13" font-weight="500" fill="#1e293b">TanStack Query</text><rect x="150" y="90" width="110" height="44" rx="8" fill="#16a34a" opacity="0.12"/><text x="205" y="118" text-anchor="middle" font-size="16" font-weight="700" fill="#16a34a">A</text><rect x="264" y="90" width="110" height="44" rx="8" fill="#65a30d" opacity="0.12"/><text x="319" y="118" text-anchor="middle" font-size="16" font-weight="700" fill="#65a30d">B+</text><rect x="378" y="90" width="110" height="44" rx="8" fill="#16a34a" opacity="0.12"/><text x="433" y="118" text-anchor="middle" font-size="16" font-weight="700" fill="#16a34a">A</text><rect x="492" y="90" width="110" height="44" rx="8" fill="#22c55e" opacity="0.15"/><text x="547" y="118" text-anchor="middle" font-size="12" font-weight="700" fill="#22c55e">KEEP</text><text x="140" y="165" text-anchor="end" font-size="13" font-weight="500" fill="#1e293b">Zustand</text><rect x="150" y="138" width="110" height="44" rx="8" fill="#16a34a" opacity="0.12"/><text x="205" y="166" text-anchor="middle" font-size="16" font-weight="700" fill="#16a34a">A</text><rect x="264" y="138" width="110" height="44" rx="8" fill="#65a30d" opacity="0.12"/><text x="319" y="166" text-anchor="middle" font-size="16" font-weight="700" fill="#65a30d">B</text><rect x="378" y="138" width="110" height="44" rx="8" fill="#16a34a" opacity="0.12"/><text x="433" y="166" text-anchor="middle" font-size="16" font-weight="700" fill="#16a34a">A</text><rect x="492" y="138" width="110" height="44" rx="8" fill="#22c55e" opacity="0.15"/><text x="547" y="166" text-anchor="middle" font-size="12" font-weight="700" fill="#22c55e">KEEP</text><text x="140" y="213" text-anchor="end" font-size="13" font-weight="500" fill="#1e293b">shadcn/ui</text><rect x="150" y="186" width="110" height="44" rx="8" fill="#16a34a" opacity="0.12"/><text x="205" y="214" text-anchor="middle" font-size="16" font-weight="700" fill="#16a34a">A</text><rect x="264" y="186" width="110" height="44" rx="8" fill="#65a30d" opacity="0.12"/><text x="319" y="214" text-anchor="middle" font-size="16" font-weight="700" fill="#65a30d">B+</text><rect x="378" y="186" width="110" height="44" rx="8" fill="#16a34a" opacity="0.12"/><text x="433" y="214" text-anchor="middle" font-size="16" font-weight="700" fill="#16a34a">A</text><rect x="492" y="186" width="110" height="44" rx="8" fill="#22c55e" opacity="0.15"/><text x="547" y="214" text-anchor="middle" font-size="12" font-weight="700" fill="#22c55e">KEEP</text><text x="140" y="261" text-anchor="end" font-size="13" font-weight="500" fill="#1e293b">nuqs</text><rect x="150" y="234" width="110" height="44" rx="8" fill="#16a34a" opacity="0.12"/><text x="205" y="262" text-anchor="middle" font-size="16" font-weight="700" fill="#16a34a">A</text><rect x="264" y="234" width="110" height="44" rx="8" fill="#ca8a04" opacity="0.12"/><text x="319" y="262" text-anchor="middle" font-size="16" font-weight="700" fill="#ca8a04">C+</text><rect x="378" y="234" width="110" height="44" rx="8" fill="#65a30d" opacity="0.12"/><text x="433" y="262" text-anchor="middle" font-size="16" font-weight="700" fill="#65a30d">B+</text><rect x="492" y="234" width="110" height="44" rx="8" fill="#22c55e" opacity="0.15"/><text x="547" y="262" text-anchor="middle" font-size="12" font-weight="700" fill="#22c55e">KEEP</text><text x="140" y="309" text-anchor="end" font-size="13" font-weight="500" fill="#1e293b">next-safe-action</text><rect x="150" y="282" width="110" height="44" rx="8" fill="#65a30d" opacity="0.12"/><text x="205" y="310" text-anchor="middle" font-size="16" font-weight="700" fill="#65a30d">B+</text><rect x="264" y="282" width="110" height="44" rx="8" fill="#ea580c" opacity="0.12"/><text x="319" y="310" text-anchor="middle" font-size="16" font-weight="700" fill="#ea580c">C</text><rect x="378" y="282" width="110" height="44" rx="8" fill="#ca8a04" opacity="0.12"/><text x="433" y="310" text-anchor="middle" font-size="16" font-weight="700" fill="#ca8a04">C+</text><rect x="492" y="282" width="110" height="44" rx="8" fill="#22c55e" opacity="0.15"/><text x="547" y="310" text-anchor="middle" font-size="12" font-weight="700" fill="#22c55e">KEEP</text><text x="140" y="357" text-anchor="end" font-size="13" font-weight="500" fill="#1e293b">Zod</text><rect x="150" y="330" width="110" height="44" rx="8" fill="#65a30d" opacity="0.12"/><text x="205" y="358" text-anchor="middle" font-size="16" font-weight="700" fill="#65a30d">B</text><rect x="264" y="330" width="110" height="44" rx="8" fill="#ca8a04" opacity="0.12"/><text x="319" y="358" text-anchor="middle" font-size="16" font-weight="700" fill="#ca8a04">C+</text><rect x="378" y="330" width="110" height="44" rx="8" fill="#16a34a" opacity="0.12"/><text x="433" y="358" text-anchor="middle" font-size="16" font-weight="700" fill="#16a34a">A-</text><rect x="492" y="330" width="110" height="44" rx="8" fill="#f59e0b" opacity="0.15"/><text x="547" y="358" text-anchor="middle" font-size="12" font-weight="700" fill="#f59e0b">INVESTIGATE</text><text x="140" y="405" text-anchor="end" font-size="13" font-weight="500" fill="#1e293b">next-intl</text><rect x="150" y="378" width="110" height="44" rx="8" fill="#16a34a" opacity="0.12"/><text x="205" y="406" text-anchor="middle" font-size="16" font-weight="700" fill="#16a34a">A-</text><rect x="264" y="378" width="110" height="44" rx="8" fill="#ea580c" opacity="0.12"/><text x="319" y="406" text-anchor="middle" font-size="16" font-weight="700" fill="#ea580c">C</text><rect x="378" y="378" width="110" height="44" rx="8" fill="#65a30d" opacity="0.12"/><text x="433" y="406" text-anchor="middle" font-size="16" font-weight="700" fill="#65a30d">B+</text><rect x="492" y="378" width="110" height="44" rx="8" fill="#f97316" opacity="0.15"/><text x="547" y="406" text-anchor="middle" font-size="12" font-weight="700" fill="#f97316">RISK PLAN</text><text x="140" y="453" text-anchor="end" font-size="13" font-weight="500" fill="#1e293b">Radix</text><rect x="150" y="426" width="110" height="44" rx="8" fill="#ca8a04" opacity="0.12"/><text x="205" y="454" text-anchor="middle" font-size="16" font-weight="700" fill="#ca8a04">C+</text><rect x="264" y="426" width="110" height="44" rx="8" fill="#dc2626" opacity="0.12"/><text x="319" y="454" text-anchor="middle" font-size="16" font-weight="700" fill="#dc2626">D+</text><rect x="378" y="426" width="110" height="44" rx="8" fill="#ca8a04" opacity="0.12"/><text x="433" y="454" text-anchor="middle" font-size="16" font-weight="700" fill="#ca8a04">B-</text><rect x="492" y="426" width="110" height="44" rx="8" fill="#ef4444" opacity="0.15"/><text x="547" y="454" text-anchor="middle" font-size="12" font-weight="700" fill="#ef4444">REPLACE</text></svg>