<svg xmlns="http://www.w3.org/2000/svg" viewBox="0 0 700 400" width="700" height="400">
  <defs>
    <style>
      @import url('https://fonts.googleapis.com/css2?family=Inter:wght@400;500;600;700&amp;display=swap');
      text { font-family: 'Inter', -apple-system, BlinkMacSystemFont, 'Segoe UI', sans-serif; }
    </style>
  </defs>
  <rect width="700" height="400" fill="#ffffff" rx="12"/><text x="350" y="35" text-anchor="middle" font-size="18" font-weight="700" fill="#1e293b">i18n: next-intl vs react-i18next</text><text x="350" y="55" text-anchor="middle" font-size="12" fill="#64748b">Feature comparison across 6 dimensions</text><circle cx="500" cy="25" r="6" fill="#06b6d4"/><text x="512" y="30" font-size="12" fill="#1e293b">next-intl</text><circle cx="590" cy="25" r="6" fill="#f59e0b"/><text x="602" y="30" font-size="12" fill="#1e293b">react-i18next</text><line x1="240" y1="75" x2="240" y2="368" stroke="#e2e8f0" stroke-width="1" stroke-dasharray="4"/><text x="240" y="68" text-anchor="middle" font-size="12" font-weight="600" fill="#64748b">D</text><line x1="340" y1="75" x2="340" y2="368" stroke="#e2e8f0" stroke-width="1" stroke-dasharray="4"/><text x="340" y="68" text-anchor="middle" font-size="12" font-weight="600" fill="#64748b">C</text><line x1="440" y1="75" x2="440" y2="368" stroke="#e2e8f0" stroke-width="1" stroke-dasharray="4"/><text x="440" y="68" text-anchor="middle" font-size="12" font-weight="600" fill="#64748b">B</text><line x1="540" y1="75" x2="540" y2="368" stroke="#e2e8f0" stroke-width="1" stroke-dasharray="4"/><text x="540" y="68" text-anchor="middle" font-size="12" font-weight="600" fill="#64748b">A</text><text x="130" y="109" text-anchor="end" font-size="13" font-weight="500" fill="#1e293b">Bundle size</text><line x1="540" y1="104" x2="240" y2="104" stroke="#e2e8f0" stroke-width="2"/><circle cx="540" cy="104" r="8" fill="#06b6d4"/><text x="540" y="108" text-anchor="middle" font-size="9" font-weight="700" fill="white">A</text><circle cx="240" cy="104" r="8" fill="#f59e0b"/><text x="240" y="108" text-anchor="middle" font-size="9" font-weight="700" fill="white">D</text><text x="685" y="108" text-anchor="end" font-size="10" fill="#64748b">4 KB vs 22 KB</text><text x="130" y="157" text-anchor="end" font-size="13" font-weight="500" fill="#1e293b">RSC integration</text><line x1="540" y1="152" x2="340" y2="152" stroke="#e2e8f0" stroke-width="2"/><circle cx="540" cy="152" r="8" fill="#06b6d4"/><text x="540" y="156" text-anchor="middle" font-size="9" font-weight="700" fill="white">A</text><circle cx="340" cy="152" r="8" fill="#f59e0b"/><text x="340" y="156" text-anchor="middle" font-size="9" font-weight="700" fill="white">C</text><text x="685" y="156" text-anchor="end" font-size="10" fill="#64748b">Native vs bolted on</text><text x="130" y="205" text-anchor="end" font-size="13" font-weight="500" fill="#1e293b">ICU plurals</text><line x1="540" y1="200" x2="340" y2="200" stroke="#e2e8f0" stroke-width="2"/><circle cx="540" cy="200" r="8" fill="#06b6d4"/><text x="540" y="204" text-anchor="middle" font-size="9" font-weight="700" fill="white">A</text><circle cx="340" cy="200" r="8" fill="#f59e0b"/><text x="340" y="204" text-anchor="middle" font-size="9" font-weight="700" fill="white">C</text><text x="685" y="204" text-anchor="end" font-size="10" fill="#64748b">Built-in vs plugin</text><text x="130" y="253" text-anchor="end" font-size="13" font-weight="500" fill="#1e293b">Type safety</text><line x1="540" y1="248" x2="340" y2="248" stroke="#e2e8f0" stroke-width="2"/><circle cx="540" cy="248" r="8" fill="#06b6d4"/><text x="540" y="252" text-anchor="middle" font-size="9" font-weight="700" fill="white">A</text><circle cx="340" cy="248" r="8" fill="#f59e0b"/><text x="340" y="252" text-anchor="middle" font-size="9" font-weight="700" fill="white">C</text><text x="685" y="252" text-anchor="end" font-size="10" fill="#64748b">Built-in vs extra setup</text><text x="130" y="301" text-anchor="end" font-size="13" font-weight="500" fill="#1e293b">Bus factor</text><line x1="240" y1="296" x2="540" y2="296" stroke="#e2e8f0" stroke-width="2"/><circle cx="240" cy="296" r="8" fill="#06b6d4"/><text x="240" y="300" text-anchor="middle" font-size="9" font-weight="700" fill="white">D</text><circle cx="540" cy="296" r="8" fill="#f59e0b"/><text x="540" y="300" text-anchor="middle" font-size="9" font-weight="700" fill="white">A</text><text x="685" y="300" text-anchor="end" font-size="10" fill="#64748b">1 vs multi-maintainer</text><text x="130" y="349" text-anchor="end" font-size="13" font-weight="500" fill="#1e293b">Portability</text><line x1="340" y1="344" x2="540" y2="344" stroke="#e2e8f0" stroke-width="2"/><circle cx="340" cy="344" r="8" fill="#06b6d4"/><text x="340" y="348" text-anchor="middle" font-size="9" font-weight="700" fill="white">C</text><circle cx="540" cy="344" r="8" fill="#f59e0b"/><text x="540" y="348" text-anchor="middle" font-size="9" font-weight="700" fill="white">A</text><text x="685" y="348" text-anchor="end" font-size="10" fill="#64748b">Next.js only vs any React</text></svg>