<svg xmlns="http://www.w3.org/2000/svg" viewBox="0 0 700 320" width="700" height="320">
  <defs>
    <style>
      @import url('https://fonts.googleapis.com/css2?family=Inter:wght@400;500;600;700&amp;display=swap');
      text { font-family: 'Inter', -apple-system, BlinkMacSystemFont, 'Segoe UI', sans-serif; }
    </style>
  </defs>
  <rect width="700" height="320" fill="#ffffff" rx="12"/><text x="350" y="35" text-anchor="middle" font-size="18" font-weight="700" fill="#1e293b">Re-render Isolation Test</text><text x="350" y="55" text-anchor="middle" font-size="12" fill="#64748b">Toggle cart open (single boolean) — which components re-render?</text><text x="200" y="70" text-anchor="middle" font-size="12" font-weight="600" fill="#1e293b">CartStatus</text><text x="326" y="70" text-anchor="middle" font-size="12" font-weight="600" fill="#1e293b">MenuStatus</text><text x="452" y="70" text-anchor="middle" font-size="12" font-weight="600" fill="#1e293b">CheckoutStatus</text><text x="578" y="70" text-anchor="middle" font-size="12" font-weight="600" fill="#1e293b">Unrelated</text><text x="130" y="110" text-anchor="end" font-size="13" font-weight="500" fill="#1e293b">Zustand</text><rect x="140" y="80" width="120" height="50" rx="8" fill="#fef2f2" stroke="#fca5a5" stroke-width="2"/><text x="200" y="110" text-anchor="middle" font-size="12" font-weight="600" fill="#dc2626">Re-rendered</text><rect x="266" y="80" width="120" height="50" rx="8" fill="#f0fdf4" stroke="#86efac" stroke-width="2"/><text x="326" y="110" text-anchor="middle" font-size="12" font-weight="600" fill="#16a34a">No render</text><rect x="392" y="80" width="120" height="50" rx="8" fill="#f0fdf4" stroke="#86efac" stroke-width="2"/><text x="452" y="110" text-anchor="middle" font-size="12" font-weight="600" fill="#16a34a">No render</text><rect x="518" y="80" width="120" height="50" rx="8" fill="#f0fdf4" stroke="#86efac" stroke-width="2"/><text x="578" y="110" text-anchor="middle" font-size="12" font-weight="600" fill="#16a34a">No render</text><text x="130" y="166" text-anchor="end" font-size="13" font-weight="500" fill="#1e293b">React Context</text><rect x="140" y="136" width="120" height="50" rx="8" fill="#fef2f2" stroke="#fca5a5" stroke-width="2"/><text x="200" y="166" text-anchor="middle" font-size="12" font-weight="600" fill="#dc2626">Re-rendered</text><rect x="266" y="136" width="120" height="50" rx="8" fill="#fef2f2" stroke="#fca5a5" stroke-width="2"/><text x="326" y="166" text-anchor="middle" font-size="12" font-weight="600" fill="#dc2626">Re-rendered</text><rect x="392" y="136" width="120" height="50" rx="8" fill="#fef2f2" stroke="#fca5a5" stroke-width="2"/><text x="452" y="166" text-anchor="middle" font-size="12" font-weight="600" fill="#dc2626">Re-rendered</text><rect x="518" y="136" width="120" height="50" rx="8" fill="#f0fdf4" stroke="#86efac" stroke-width="2"/><text x="578" y="166" text-anchor="middle" font-size="12" font-weight="600" fill="#16a34a">No render</text><text x="130" y="222" text-anchor="end" font-size="13" font-weight="500" fill="#1e293b">Self-Rolled</text><rect x="140" y="192" width="120" height="50" rx="8" fill="#fef2f2" stroke="#fca5a5" stroke-width="2"/><text x="200" y="222" text-anchor="middle" font-size="12" font-weight="600" fill="#dc2626">Re-rendered</text><rect x="266" y="192" width="120" height="50" rx="8" fill="#f0fdf4" stroke="#86efac" stroke-width="2"/><text x="326" y="222" text-anchor="middle" font-size="12" font-weight="600" fill="#16a34a">No render</text><rect x="392" y="192" width="120" height="50" rx="8" fill="#f0fdf4" stroke="#86efac" stroke-width="2"/><text x="452" y="222" text-anchor="middle" font-size="12" font-weight="600" fill="#16a34a">No render</text><rect x="518" y="192" width="120" height="50" rx="8" fill="#f0fdf4" stroke="#86efac" stroke-width="2"/><text x="578" y="222" text-anchor="middle" font-size="12" font-weight="600" fill="#16a34a">No render</text></svg>