<svg xmlns="http://www.w3.org/2000/svg" viewBox="0 0 700 400" width="700" height="400">
  <defs>
    <style>
      @import url('https://fonts.googleapis.com/css2?family=Inter:wght@400;500;600;700&amp;display=swap');
      text { font-family: 'Inter', -apple-system, BlinkMacSystemFont, 'Segoe UI', sans-serif; }
    </style>
  </defs>
  <rect width="700" height="400" fill="#ffffff" rx="12"/><text x="350" y="35" text-anchor="middle" font-size="18" font-weight="700" fill="#1e293b">Self-Roll Viability</text><text x="350" y="55" text-anchor="middle" font-size="12" fill="#64748b">Lines of code to replace each dependency (all passed functional parity)</text><line x1="170" y1="70" x2="170" y2="310" stroke="#e2e8f0" stroke-width="1"/><line x1="287.5" y1="70" x2="287.5" y2="310" stroke="#e2e8f0" stroke-width="1"/><line x1="405" y1="70" x2="405" y2="310" stroke="#e2e8f0" stroke-width="1"/><line x1="522.5" y1="70" x2="522.5" y2="310" stroke="#e2e8f0" stroke-width="1"/><line x1="640" y1="70" x2="640" y2="310" stroke="#e2e8f0" stroke-width="1"/><text x="160" y="90" text-anchor="end" font-size="13" font-weight="500" fill="#1e293b">nuqs</text><rect x="170" y="70" width="470" height="30" rx="6" fill="#f1f5f9"/><rect x="170" y="70" width="423" height="30" rx="6" fill="#14b8a6"/><text x="170" y="118" font-size="12" font-weight="600" fill="#14b8a6">180 lines</text><text x="245" y="118" font-size="12" fill="#64748b"> — replaces 2 KB gzip</text><text x="160" y="180" text-anchor="end" font-size="13" font-weight="500" fill="#1e293b">next-safe-action</text><rect x="170" y="160" width="470" height="30" rx="6" fill="#f1f5f9"/><rect x="170" y="160" width="235" height="30" rx="6" fill="#f59e0b"/><text x="170" y="208" font-size="12" font-weight="600" fill="#f59e0b">100 lines</text><text x="160" y="270" text-anchor="end" font-size="13" font-weight="500" fill="#1e293b">Zustand</text><rect x="170" y="250" width="470" height="30" rx="6" fill="#f1f5f9"/><rect x="170" y="250" width="129.25" height="30" rx="6" fill="#10b981"/><text x="170" y="298" font-size="12" font-weight="600" fill="#10b981">55 lines</text><text x="245" y="298" font-size="12" fill="#64748b"> — replaces 1 KB gzip</text><line x1="170" y1="330" x2="640" y2="330" stroke="#1e293b" stroke-width="1" stroke-dasharray="4"/><text x="640" y="350" text-anchor="end" font-size="13" font-weight="700" fill="#1e293b">Total: 335 lines replacing 3 dependencies</text></svg>